<svg xmlns="http://www.w3.org/2000/svg" xml:space="preserve" width="350" height="350" viewBox="0 0 350 350"><path d="M0 0h350v350H0z" style="display:inline;opacity:1;fill:#ffe900;fill-opacity:1;stroke-width:0"/><path d="M60 56v194l115 73 115-73V56L175 30Z" style="fill:#000;fill-opacity:1;stroke-width:.753;opacity:1"/><path d="M172.15 98.992c-4.464 6.462-13.082 19.038-17.777 26.557-5.7 9.129-11.81 18.108-16.164 27.951-3.644 8.239-8.176 16.528-8.209 25.75 0 24.853 20.147 45 45 45s45-20.147 45-45c-.003-9.785-5.184-18.418-9.094-27.111-4.192-9.323-9.876-17.912-15.28-26.59-4.684-7.526-13.309-20.102-17.776-26.561-1.57-2.27-4.13-2.268-5.7.004" style="opacity:1;fill:#ffe900;fill-opacity:1;stroke-width:.979167" transform="matrix(1.02128 0 0 1.02128 -3.723 -1.771)"/></svg>