<svg xmlns="http://www.w3.org/2000/svg" xml:space="preserve" width="300" height="300" viewBox="0 0 300 300"><path d="M0 0h300v300H0z" style="display:inline;opacity:1;fill:#ffe900;fill-opacity:1;stroke-width:0"/><path d="M139.648-68.367 101.363-8.616a107.1 107.1 0 0 1 38.285-7.362 107.1 107.1 0 0 1 38.071 7.027zM26.852-21.645 41.95 47.317A107.13 107.13 0 0 1 95.814-6.547zm225.592 0L183.51-6.555a107.13 107.13 0 0 1 53.842 53.843zM139.648 10.218a4.8 4.8 0 0 0-1.548.254l-60.284 20.35a2.12 2.12 0 0 0-1.434 2.15l4.12 59.72a3.62 3.62 0 0 1-1.034 2.791L61.833 113.35a1.79 1.79 0 0 0-.095 2.413l24.856 29.554a2.14 2.14 0 0 0 2.534.566l13.833-6.387a1.423 1.423 0 0 1 1.958.877l6.872 22.62a3.11 3.11 0 0 0 2.033 2.06l24.267 7.747a5.1 5.1 0 0 0 3.114 0l24.267-7.747a3.11 3.11 0 0 0 2.033-2.06l6.872-22.62a1.423 1.423 0 0 1 1.958-.877l13.833 6.387a2.14 2.14 0 0 0 2.533-.566l24.857-29.554a1.79 1.79 0 0 0-.095-2.413l-17.635-17.867a3.62 3.62 0 0 1-1.034-2.791l4.12-59.72a2.12 2.12 0 0 0-1.435-2.15l-60.284-20.35a4.8 4.8 0 0 0-1.547-.254M39.88 52.867-19.871 91.15l59.752 38.284a107.1 107.1 0 0 1-7.362-38.284 107.1 107.1 0 0 1 7.362-38.284m199.87.212a107.1 107.1 0 0 1 7.026 38.072 107.1 107.1 0 0 1-7.362 38.284l59.751-38.284zM105.178 89.023c8.72 0 15.791 7.07 15.791 15.791s-7.07 15.791-15.79 15.791c-8.721 0-15.792-7.07-15.792-15.79 0-8.721 7.07-15.792 15.791-15.792m68.938 0c8.72 0 15.79 7.07 15.79 15.791s-7.07 15.791-15.79 15.791c-8.721 0-15.791-7.07-15.791-15.79 0-8.721 7.07-15.792 15.79-15.792m-34.47 32.833a1.6 1.6 0 0 1 1.347.739l8.667 13.658a1.183 1.183 0 0 1-.286 1.577l-3.62 2.74a1.11 1.11 0 0 1-1.541-.197l-3.893-4.96a.855.855 0 0 0-1.346 0l-3.893 4.96a1.11 1.11 0 0 1-1.54.197l-3.622-2.74a1.183 1.183 0 0 1-.285-1.577l8.667-13.658a1.6 1.6 0 0 1 1.346-.74M41.95 134.984l-15.098 68.963 68.962-15.098a107.13 107.13 0 0 1-53.864-53.865m195.396 0a107.13 107.13 0 0 1-53.865 53.865l68.963 15.098zm-135.983 55.934 38.285 59.751 38.284-59.751a107.1 107.1 0 0 1-38.284 7.362 107.1 107.1 0 0 1-38.285-7.362" style="display:inline;fill:#000;fill-opacity:1;stroke-width:1.16014" transform="matrix(.86197 0 0 .86197 29.628 71.43)"/></svg>