<svg xmlns="http://www.w3.org/2000/svg" xml:space="preserve" width="300" height="300" viewBox="0 0 300 300"><path d="M0 0h300v300H0z" style="display:inline;opacity:1;fill:#ffe900;fill-opacity:1;stroke-width:0"/><path d="M159.395 56.887c-7.512-1.68-15.527-.909-23.084.55-9.506 1.836-18.792 5.382-27.207 10.168-6.74 3.834-12.634 9.105-18.14 14.565-5.038 4.997-9.19 10.826-13.466 16.49-4.44 5.882-12.64 18.139-12.64 18.139s14.148 9.188 20.062 15.114c6.146 6.16 15.664 20.886 15.664 20.886s9.084-7.908 14.29-10.855c4.723-2.673 9.954-4.372 15.116-6.046 5.526-1.793 11.64-1.795 16.902-4.26 5.284-2.476 9.94-6.267 14.153-10.305 3.506-3.36 6.236-7.46 9.068-11.405 3.053-4.253 6.561-8.337 8.52-13.192 1.781-4.415 2.859-9.256 2.748-14.015-.108-4.62-1.08-9.413-3.299-13.467-1.275-2.33-3.36-4.192-5.496-5.772-3.953-2.923-8.394-5.523-13.191-6.595m83.82 40.949c-4.674-.937-9.656-.567-14.291.549-4.025.969-7.679 3.16-11.268 5.222-4.164 2.393-8.183 5.104-11.816 8.245-3.138 2.712-5.807 5.93-8.52 9.068-2.985 3.453-6.521 6.615-8.52 10.719-1.896 3.895-1.872 8.463-3.023 12.64-1.02 3.702-2.093 7.397-3.435 10.994-1.361 3.652-2.702 7.355-4.67 10.718-2.032 3.47-4.37 6.845-7.283 9.618-2.53 2.41-8.657 5.91-8.657 5.91s16.308 10.106 22.947 16.9c6.02 6.163 14.84 21.161 14.84 21.161s8.272-7.336 12.641-10.717c3.9-3.017 8.187-5.509 12.092-8.52 3.604-2.779 7.1-5.706 10.443-8.794 3.64-3.363 7.334-6.722 10.443-10.58 3.053-3.79 5.69-7.932 7.97-12.23 2.327-4.39 4.152-9.044 5.77-13.741 1.703-4.937 3.256-9.965 4.124-15.115.9-5.342 1.646-10.825 1.1-16.215-.451-4.444-1.558-8.93-3.573-12.916-1.471-2.912-3.488-5.671-6.047-7.695a26.94 26.94 0 0 0-11.267-5.221M56.613 124.768s-6.517 7.29-9.343 11.267c-2.977 4.188-6.03 8.435-7.971 13.192-1.813 4.444-3.357 9.216-3.297 14.015.05 3.977 1.258 7.978 3.021 11.543 2.113 4.27 5.193 8.15 8.795 11.268 3.35 2.9 7.293 5.34 11.543 6.595 3.168.936 6.631 1.068 9.893.55 3.495-.557 6.963-1.867 9.894-3.848 2.423-1.638 4.181-4.111 5.998-6.402 1.983-2.499 3.738-5.186 5.314-7.96 2.192-3.86 5.728-12.021 5.728-12.021Zm93.713 61.01s-9.417 5.48-13.467 9.07c-3.353 2.972-6.786 6.16-8.793 10.168-1.343 2.682-2.04 5.795-1.923 8.793.16 4.112 1.576 8.219 3.572 11.818 1.416 2.555 3.684 4.552 5.771 6.596 2.648 2.593 5.392 5.156 8.52 7.144 2.386 1.517 4.92 3.023 7.693 3.572 4.138.82 8.495.217 12.643-.55 3.418-.63 6.77-1.77 9.892-3.297 3.264-1.596 6.174-3.851 9.07-6.045 2.694-2.04 7.696-6.596 7.696-6.596Z" style="opacity:1;fill:#000;fill-opacity:1"/></svg>